<svg xmlns="http://www.w3.org/2000/svg" version="1.1" xmlns:xlink="http://www.w3.org/1999/xlink" xmlns:svgjs="http://svgjs.dev/svgjs" width="1000" height="1000" viewBox="0 0 1000 1000"><rect width="1000" height="1000" fill="#a62a6c"></rect><g transform="matrix(0.7,0,0,0.7,149.57575760262813,341.43999584297956)"><svg viewBox="0 0 396 179" data-background-color="#a62a6c" preserveAspectRatio="xMidYMid meet" height="452" width="1000" xmlns="http://www.w3.org/2000/svg" xmlns:xlink="http://www.w3.org/1999/xlink"><g id="tight-bounds" transform="matrix(1,0,0,1,0.23999998479894202,0.20367761203635837)"><svg viewBox="0 0 395.52 178.5921792478381" height="178.5921792478381" width="395.52"><g><svg viewBox="0 0 395.52 178.5921792478381" height="178.5921792478381" width="395.52"><g><svg viewBox="0 0 395.52 178.5921792478381" height="178.5921792478381" width="395.52"><g id="textblocktransform"><svg viewBox="0 0 395.52 178.5921792478381" height="178.5921792478381" width="395.52" id="textblock"><g><svg viewBox="0 0 395.52 74.75631170620528" height="74.75631170620528" width="395.52"><g transform="matrix(1,0,0,1,0,0)"><svg width="395.52" viewBox="2.7 -24.954541015624997 185.19172412262 35.004541015624994" height="74.75631170620528" data-palette-color="#ffffff"><path d="M13.9-24.95L13.9-24.95Q19.4-24.95 21.88-22.95 24.35-20.95 24.35-17L24.35-17Q24.4-13.75 23-11.93 21.6-10.1 18.55-10.1L18.55-10.1 4.35-10.1 4.35-13.4 17.45-13.4Q19.1-13.4 19.6-14.53 20.1-15.65 20.1-17L20.1-17Q20.05-19.35 18.7-20.35 17.35-21.35 14.1-21.35L14.1-21.35Q11.45-21.35 9.93-20.58 8.4-19.8 7.78-17.88 7.15-15.95 7.15-12.5L7.15-12.5Q7.15-8.6 7.93-6.55 8.7-4.5 10.4-3.75 12.1-3 14.9-3L14.9-3Q16.85-3 19.18-3.18 21.5-3.35 23.35-3.6L23.35-3.6 23.8-0.75Q22.65-0.3 20.98 0 19.3 0.3 17.53 0.45 15.75 0.6 14.35 0.6L14.35 0.6Q10.15 0.6 7.6-0.68 5.05-1.95 3.88-4.78 2.7-7.6 2.7-12.25L2.7-12.25Q2.7-17.05 3.88-19.83 5.05-22.6 7.53-23.78 10-24.95 13.9-24.95ZM46.9-24.35L51.5-24.35 43.95-12.55 52.1 0 47.5 0 39.55-12.55 46.9-24.35ZM28.6-24.35L33.2-24.35 40.55-12.55 32.65 0 28 0 36.15-12.55 28.6-24.35ZM37.45-14.3L42.7-14.3 42.7-11 37.45-11 37.45-14.3ZM71.09-24.95L71.09-24.95Q75.55-24.95 77.5-21.68 79.45-18.4 79.45-12.05L79.45-12.05Q79.45-7.35 78.45-4.58 77.45-1.8 75.42-0.6 73.4 0.6 70.25 0.6L70.25 0.6Q67.84 0.6 65.52-0.05 63.2-0.7 61-2.05L61-2.05 61.25-4.6Q63.6-3.95 65.4-3.53 67.2-3.1 69.2-3.1L69.2-3.1Q71.34-3.1 72.62-3.85 73.9-4.6 74.5-6.55 75.09-8.5 75.09-12.05L75.09-12.05Q75.09-15.5 74.55-17.5 74-19.5 72.82-20.38 71.65-21.25 69.7-21.25L69.7-21.25Q67.7-21.25 65.75-20.3 63.8-19.35 61.2-17.4L61.2-17.4 60.8-20.25Q62.15-21.7 63.85-22.75 65.55-23.8 67.42-24.38 69.3-24.95 71.09-24.95ZM57.15-24.35L60.65-24.35 61.1-19.3 61.4-18.65 61.4-3.05 61.2-2.45Q61.35-1.05 61.37 0.25 61.4 1.55 61.4 3L61.4 3 61.4 10.05 57.15 10.05 57.15-24.35ZM96.14-24.95L96.14-24.95Q101.64-24.95 104.12-22.95 106.59-20.95 106.59-17L106.59-17Q106.64-13.75 105.24-11.93 103.84-10.1 100.79-10.1L100.79-10.1 86.59-10.1 86.59-13.4 99.69-13.4Q101.34-13.4 101.84-14.53 102.34-15.65 102.34-17L102.34-17Q102.29-19.35 100.94-20.35 99.59-21.35 96.34-21.35L96.34-21.35Q93.69-21.35 92.17-20.58 90.64-19.8 90.02-17.88 89.39-15.95 89.39-12.5L89.39-12.5Q89.39-8.6 90.17-6.55 90.94-4.5 92.64-3.75 94.34-3 97.14-3L97.14-3Q99.09-3 101.42-3.18 103.74-3.35 105.59-3.6L105.59-3.6 106.04-0.75Q104.89-0.3 103.22 0 101.54 0.3 99.77 0.45 97.99 0.6 96.59 0.6L96.59 0.6Q92.39 0.6 89.84-0.68 87.29-1.95 86.12-4.78 84.94-7.6 84.94-12.25L84.94-12.25Q84.94-17.05 86.12-19.83 87.29-22.6 89.77-23.78 92.24-24.95 96.14-24.95ZM127.79-24.95L127.79-24.95Q134.39-24.95 134.39-18.25L134.39-18.25 134.39 0 130.14 0 130.14-17.05Q130.14-19.5 129.34-20.43 128.54-21.35 126.64-21.35L126.64-21.35Q124.39-21.35 122.14-20.25 119.89-19.15 116.79-17.25L116.79-17.25 116.59-20.3Q119.44-22.5 122.24-23.73 125.04-24.95 127.79-24.95ZM112.99-24.35L116.59-24.35 116.94-19.7 117.24-18.95 117.24 0 112.99 0 112.99-24.35ZM150.14-24.95L150.14-24.95Q151.74-24.95 153.54-24.85 155.34-24.75 157.11-24.6 158.89-24.45 160.39-24.2L160.39-24.2 160.04-21.1Q157.74-21.2 155.41-21.28 153.09-21.35 150.79-21.35L150.79-21.35Q148.54-21.4 147.24-21.25 145.94-21.1 145.36-20.45 144.79-19.8 144.79-18.25L144.79-18.25Q144.79-16.35 145.69-15.75 146.59-15.15 148.34-14.75L148.34-14.75 155.44-13.15Q158.34-12.45 159.71-11 161.09-9.55 161.09-6.45L161.09-6.45Q161.09-3.45 159.96-1.95 158.84-0.45 156.54 0.05 154.24 0.55 150.69 0.55L150.69 0.55Q149.39 0.55 146.81 0.45 144.24 0.35 141.14-0.15L141.14-0.15 141.44-3.25Q142.64-3.2 143.99-3.13 145.34-3.05 146.81-3.05 148.29-3.05 149.84-3.05L149.84-3.05Q152.59-3.05 154.14-3.3 155.69-3.55 156.34-4.28 156.99-5 156.99-6.45L156.99-6.45Q156.99-8.25 155.94-8.85 154.89-9.45 153.14-9.85L153.14-9.85 146.14-11.45Q144.14-11.95 142.94-12.78 141.74-13.6 141.19-14.93 140.64-16.25 140.64-18.25L140.64-18.25Q140.64-21.1 141.64-22.55 142.64-24 144.74-24.5 146.84-25 150.14-24.95ZM177.44-24.95L177.44-24.95Q182.94-24.95 185.41-22.95 187.89-20.95 187.89-17L187.89-17Q187.94-13.75 186.54-11.93 185.14-10.1 182.09-10.1L182.09-10.1 167.89-10.1 167.89-13.4 180.99-13.4Q182.64-13.4 183.14-14.53 183.64-15.65 183.64-17L183.64-17Q183.59-19.35 182.24-20.35 180.89-21.35 177.64-21.35L177.64-21.35Q174.99-21.35 173.46-20.58 171.94-19.8 171.31-17.88 170.69-15.95 170.69-12.5L170.69-12.5Q170.69-8.6 171.46-6.55 172.24-4.5 173.94-3.75 175.64-3 178.44-3L178.44-3Q180.39-3 182.71-3.18 185.04-3.35 186.89-3.6L186.89-3.6 187.34-0.75Q186.19-0.3 184.51 0 182.84 0.3 181.06 0.45 179.29 0.6 177.89 0.6L177.89 0.6Q173.69 0.6 171.14-0.68 168.59-1.95 167.41-4.78 166.24-7.6 166.24-12.25L166.24-12.25Q166.24-17.05 167.41-19.83 168.59-22.6 171.06-23.78 173.54-24.95 177.44-24.95Z" opacity="1" transform="matrix(1,0,0,1,0,0)" fill="#ffffff" class="wordmark-text-0" data-fill-palette-color="primary" id="text-0"></path></svg></g></svg></g><g transform="matrix(1,0,0,1,0,110.05265379091352)"><svg viewBox="0 0 395.52 68.53952545692457" height="68.53952545692457" width="395.52"><path d="M395.52 0l-11.423 34.27 11.423 34.27h-395.52l11.423-34.27-11.423-34.27z" data-fill-palette-color="tertiary" opacity="1" fill="#ffffff"></path><g transform="matrix(1,0,0,1,75.54432,17.648171042354118)"><svg width="244.43135999999998" viewBox="4.64 -36.89 368.33000000000004 50.1" height="33.24318337221633" data-palette-color="#a62a6c"><path d="M4.64 0L4.64-36.89 8.64-36.89 8.64-22.97Q11.79-24.61 15.09-24.61L15.09-24.61Q16.55-24.61 17.97-24.26 19.38-23.9 20.81-23.01 22.24-22.12 23.32-20.78 24.39-19.43 25.06-17.26 25.73-15.09 25.73-12.35L25.73-12.35Q25.73-6.4 22.57-2.95 19.41 0.49 14.38 0.49L14.38 0.49Q11.08 0.49 7.91-1.12L7.91-1.12 7.42 0 4.64 0ZM13.72-21.29L13.72-21.29Q11.11-21.29 8.64-20L8.64-20 8.64-3.78Q11.25-2.66 13.79-2.66L13.79-2.66Q14.92-2.66 15.97-2.91 17.02-3.15 18.1-3.8 19.19-4.44 20-5.42 20.8-6.4 21.31-8.01 21.83-9.62 21.83-11.65L21.83-11.65Q21.83-13.94 21.29-15.71 20.75-17.48 19.92-18.51 19.09-19.53 17.97-20.19 16.85-20.85 15.82-21.07 14.79-21.29 13.72-21.29ZM49.22-4.98L49.22-24.12 53.22-24.12 53.22 0 50.41 0 49.56-2.03Q44.94 0.49 41.04 0.49L41.04 0.49Q39.06 0.49 37.6-0.13 36.13-0.76 35.32-1.68 34.52-2.61 34.03-4.04 33.54-5.47 33.41-6.76 33.27-8.06 33.27-9.72L33.27-9.72 33.27-24.12 37.28-24.12 37.28-9.42Q37.28-3.1 42.77-3.1L42.77-3.1Q45.6-3.1 49.22-4.98L49.22-4.98ZM60.79-11.65L60.79-11.65Q60.79-14.77 61.66-17.26 62.54-19.75 64.08-21.34 65.62-22.92 67.68-23.77 69.75-24.61 72.14-24.61L72.14-24.61Q75.02-24.61 77.97-23.32L77.97-23.32 77.97-36.89 81.98-36.89 81.98 0 79.19 0 78.54-1.51Q75.14 0.49 71.45 0.49L71.45 0.49Q69.94 0.49 68.5 0.12 67.06-0.24 65.64-1.15 64.23-2.05 63.17-3.41 62.1-4.76 61.45-6.88 60.79-9.01 60.79-11.65ZM72.77-2.81L72.77-2.81Q75.43-2.81 77.97-4.17L77.97-4.17 77.97-20.29Q75.36-21.46 72.72-21.46L72.72-21.46Q71.6-21.46 70.55-21.22 69.5-20.97 68.4-20.34 67.3-19.7 66.51-18.7 65.72-17.7 65.2-16.05 64.69-14.4 64.69-12.28L64.69-12.28Q64.69-10.08 65.23-8.36 65.77-6.64 66.6-5.62 67.43-4.59 68.55-3.93 69.67-3.27 70.7-3.04 71.72-2.81 72.77-2.81ZM100.94-24.61L100.94-24.61Q103.83-24.61 107.61-22.68L107.61-22.68 108.12-24.12 110.93-24.12 110.93 1.51Q110.93 2.25 110.88 2.93 110.83 3.61 110.59 4.86 110.34 6.1 109.9 7.13 109.47 8.15 108.57 9.34 107.68 10.52 106.47 11.33 105.27 12.13 103.35 12.67 101.43 13.21 99.06 13.21L99.06 13.21Q95.33 13.21 91.59 11.65L91.59 11.65 92.72 8.74Q95.72 9.86 98.55 9.86L98.55 9.86Q106.93 9.86 106.93 0.61L106.93 0.61 106.93-1.17Q103.78 0.49 100.55 0.49L100.55 0.49Q98.99 0.49 97.5 0.09 96.01-0.32 94.58-1.26 93.16-2.2 92.09-3.6 91.03-5 90.39-7.17 89.74-9.33 89.74-11.99L89.74-11.99Q89.74-14.79 90.52-17.05 91.3-19.31 92.5-20.68 93.69-22.05 95.24-22.97 96.79-23.9 98.21-24.26 99.63-24.61 100.94-24.61ZM101.19-21.36L101.19-21.36Q97.8-21.36 95.72-18.92 93.64-16.48 93.64-12.45L93.64-12.45Q93.64-9.77 94.5-7.62 95.35-5.47 97.21-4.14 99.06-2.81 101.68-2.81L101.68-2.81Q104.34-2.81 106.93-4.2L106.93-4.2 106.93-20Q103.58-21.36 101.19-21.36ZM130.09-24.58L130.09-24.58Q131.85-24.58 133.25-24.16 134.66-23.73 135.59-23.07 136.51-22.41 137.18-21.35 137.86-20.29 138.21-19.3 138.56-18.31 138.76-16.92 138.95-15.53 139-14.5 139.05-13.48 139.05-12.08L139.05-12.08 139.05-10.18 122.48-10.18Q122.48-8.86 123.07-7.56 123.67-6.25 124.76-5.16 125.84-4.08 127.61-3.39 129.38-2.71 131.53-2.71L131.53-2.71Q134.07-2.71 137.03-3.59L137.03-3.59 137.73-0.85Q133.8 0.49 130.02 0.49L130.02 0.49Q127.36 0.49 125.3-0.22 123.23-0.93 121.97-2.06 120.72-3.2 119.91-4.79 119.11-6.37 118.8-7.95 118.5-9.52 118.5-11.28L118.5-11.28Q118.5-13.99 119.16-16.24 119.81-18.48 120.94-20.01 122.06-21.53 123.56-22.58 125.06-23.63 126.71-24.11 128.36-24.58 130.09-24.58ZM129.24-21.12L129.24-21.12Q127.09-21.12 125.54-19.93 123.99-18.75 123.28-16.99 122.57-15.23 122.57-13.21L122.57-13.21 135.17-13.21Q135.17-21.12 129.24-21.12ZM158.87-3.15L159.44-0.42Q155.9 0.49 153.92 0.49 151.94 0.49 150.57-0.15 149.21-0.78 148.5-1.95 147.79-3.13 147.49-4.48 147.18-5.83 147.18-7.59L147.18-7.59 147.18-20.97 143.93-20.97 143.93-24.12 147.18-24.12 147.18-31.03 151.18-31.03 151.18-24.12 158.53-24.12 158.53-20.97 151.18-20.97 151.18-7.64Q151.18-2.64 155.14-2.64L155.14-2.64Q155.85-2.64 158.87-3.15L158.87-3.15ZM188.85-20.9L188.85-20.9Q186.75-20.9 183.21-19.04L183.21-19.04 183.21 0 179.21 0 179.21-24.12 182.01-24.12 182.87-22.12Q187.24-24.58 190.44-24.58L190.44-24.58Q194.12-24.58 196.22-21.9L196.22-21.9Q201.01-24.56 204.79-24.56L204.79-24.56Q206.62-24.56 208.01-24.06 209.41-23.56 210.27-22.69 211.14-21.83 211.69-20.52 212.24-19.21 212.45-17.76 212.65-16.31 212.65-14.48L212.65-14.48 212.65 0 208.65 0 208.65-14.75Q208.65-15.19 208.63-15.56 208.6-15.94 208.5-16.61 208.41-17.29 208.21-17.81 208.01-18.33 207.64-18.95 207.26-19.56 206.72-19.96 206.18-20.36 205.35-20.63 204.52-20.9 203.5-20.9L203.5-20.9Q201.25-20.9 197.57-18.99L197.57-18.99Q197.91-17.55 197.91-14.31L197.91-14.31 197.91 0 193.9 0 193.9-14.84Q193.9-15.48 193.85-16.05 193.81-16.63 193.51-17.58 193.22-18.53 192.73-19.2 192.24-19.87 191.23-20.39 190.22-20.9 188.85-20.9ZM229.52-24.58L229.52-24.58Q232.21-24.58 234.07-23.96 235.94-23.34 236.96-22.14 237.97-20.95 238.41-19.48 238.85-18.02 238.85-16.11L238.85-16.11 238.85 0 236.02 0 235.09-2.2Q232.13 0.49 228.3 0.49L228.3 0.49Q224.88 0.49 222.51-1.57 220.15-3.64 220.15-6.4L220.15-6.4Q220.15-7.86 220.68-9.03 221.22-10.21 222.23-10.99 223.25-11.77 224.54-12.32 225.83-12.87 227.56-13.16 229.28-13.45 231.01-13.57 232.74-13.7 234.82-13.7L234.82-13.7 234.82-15.6Q234.82-16.43 234.76-17.04 234.7-17.65 234.36-18.51 234.01-19.36 233.43-19.91 232.84-20.46 231.67-20.86 230.5-21.26 228.89-21.26L228.89-21.26Q226.4-21.26 222.44-20.17L222.44-20.17 221.68-23.1Q225.69-24.58 229.52-24.58ZM234.82-5.13L234.82-10.67 233.33-10.67Q231.94-10.67 230.91-10.62 229.89-10.57 228.51-10.34 227.13-10.11 226.25-9.69 225.37-9.28 224.75-8.48 224.13-7.69 224.13-6.59L224.13-6.59Q224.13-5.05 225.68-3.86 227.23-2.66 229.37-2.66L229.37-2.66Q232.52-2.66 234.82-5.13L234.82-5.13ZM247.63 0L247.63-24.12 250.44-24.12 251.32-22.07Q255.98-24.61 259.82-24.61L259.82-24.61Q261.79-24.61 263.26-23.99 264.72-23.36 265.53-22.42 266.33-21.48 266.81-20.06 267.29-18.63 267.42-17.33 267.56-16.04 267.56-14.38L267.56-14.38 267.56 0 263.55 0 263.55-14.65Q263.55-21 258.08-21L258.08-21Q255.25-21 251.64-19.12L251.64-19.12 251.64 0 247.63 0ZM284.33-24.58L284.33-24.58Q287.01-24.58 288.88-23.96 290.75-23.34 291.76-22.14 292.77-20.95 293.21-19.48 293.65-18.02 293.65-16.11L293.65-16.11 293.65 0 290.82 0 289.89-2.2Q286.94 0.49 283.1 0.49L283.1 0.49Q279.69 0.49 277.32-1.57 274.95-3.64 274.95-6.4L274.95-6.4Q274.95-7.86 275.49-9.03 276.02-10.21 277.04-10.99 278.05-11.77 279.35-12.32 280.64-12.87 282.36-13.16 284.08-13.45 285.81-13.57 287.55-13.7 289.62-13.7L289.62-13.7 289.62-15.6Q289.62-16.43 289.56-17.04 289.5-17.65 289.16-18.51 288.82-19.36 288.23-19.91 287.65-20.46 286.47-20.86 285.3-21.26 283.69-21.26L283.69-21.26Q281.2-21.26 277.25-20.17L277.25-20.17 276.49-23.1Q280.49-24.58 284.33-24.58ZM289.62-5.13L289.62-10.67 288.13-10.67Q286.74-10.67 285.72-10.62 284.69-10.57 283.31-10.34 281.93-10.11 281.05-9.69 280.18-9.28 279.55-8.48 278.93-7.69 278.93-6.59L278.93-6.59Q278.93-5.05 280.48-3.86 282.03-2.66 284.18-2.66L284.18-2.66Q287.33-2.66 289.62-5.13L289.62-5.13ZM312.37-24.61L312.37-24.61Q315.26-24.61 319.04-22.68L319.04-22.68 319.55-24.12 322.36-24.12 322.36 1.51Q322.36 2.25 322.31 2.93 322.26 3.61 322.02 4.86 321.77 6.1 321.33 7.13 320.9 8.15 320 9.34 319.11 10.52 317.9 11.33 316.7 12.13 314.78 12.67 312.86 13.21 310.49 13.21L310.49 13.21Q306.76 13.21 303.02 11.65L303.02 11.65 304.15 8.74Q307.15 9.86 309.98 9.86L309.98 9.86Q318.36 9.86 318.36 0.61L318.36 0.61 318.36-1.17Q315.21 0.49 311.98 0.49L311.98 0.49Q310.42 0.49 308.93 0.09 307.44-0.32 306.01-1.26 304.59-2.2 303.52-3.6 302.46-5 301.82-7.17 301.17-9.33 301.17-11.99L301.17-11.99Q301.17-14.79 301.95-17.05 302.73-19.31 303.93-20.68 305.12-22.05 306.67-22.97 308.22-23.9 309.64-24.26 311.06-24.61 312.37-24.61ZM312.62-21.36L312.62-21.36Q309.23-21.36 307.15-18.92 305.08-16.48 305.08-12.45L305.08-12.45Q305.08-9.77 305.93-7.62 306.78-5.47 308.64-4.14 310.49-2.81 313.11-2.81L313.11-2.81Q315.77-2.81 318.36-4.2L318.36-4.2 318.36-20Q315.01-21.36 312.62-21.36ZM341.52-24.58L341.52-24.58Q343.28-24.58 344.68-24.16 346.09-23.73 347.02-23.07 347.94-22.41 348.62-21.35 349.29-20.29 349.64-19.3 349.99-18.31 350.19-16.92 350.39-15.53 350.43-14.5 350.48-13.48 350.48-12.08L350.48-12.08 350.48-10.18 333.91-10.18Q333.91-8.86 334.5-7.56 335.1-6.25 336.19-5.16 337.27-4.08 339.04-3.39 340.81-2.71 342.96-2.71L342.96-2.71Q345.5-2.71 348.46-3.59L348.46-3.59 349.16-0.85Q345.23 0.49 341.45 0.49L341.45 0.49Q338.79 0.49 336.73-0.22 334.66-0.93 333.41-2.06 332.15-3.2 331.34-4.79 330.54-6.37 330.23-7.95 329.93-9.52 329.93-11.28L329.93-11.28Q329.93-13.99 330.59-16.24 331.24-18.48 332.37-20.01 333.49-21.53 334.99-22.58 336.49-23.63 338.14-24.11 339.79-24.58 341.52-24.58ZM340.67-21.12L340.67-21.12Q338.52-21.12 336.97-19.93 335.42-18.75 334.71-16.99 334-15.23 334-13.21L334-13.21 346.6-13.21Q346.6-21.12 340.67-21.12ZM360.86-24.12L361.61-22.31Q364.66-24.58 368.35-24.58L368.35-24.58Q370.89-24.58 372.97-23.63L372.97-23.63 371.74-20.43Q369.84-21.17 367.79-21.17L367.79-21.17Q364.74-21.17 362.05-19.48L362.05-19.48 362.05 0 358.05 0 358.05-24.12 360.86-24.12Z" opacity="1" transform="matrix(1,0,0,1,0,0)" fill="#a62a6c" class="slogan-text-1" data-fill-palette-color="quaternary" id="text-1"></path></svg></g></svg></g></svg></g></svg></g></svg></g><defs></defs></svg><rect width="395.52" height="178.5921792478381" fill="none" stroke="none" visibility="hidden"></rect></g></svg></g></svg>